<svg width="18" height="18" viewBox="0 0 18 18" fill="none" xmlns="http://www.w3.org/2000/svg">
<g clip-path="url(#clip0_2476_1310)">
<path d="M8.25 1.5H6.75C3 1.5 1.5 3 1.5 6.75V11.25C1.5 15 3 16.5 6.75 16.5H11.25C15 16.5 16.5 15 16.5 11.25V9.75" stroke="#969696" stroke-width="1.5" stroke-linecap="round" stroke-linejoin="round"/>
<path d="M12.0299 2.26592L6.11991 8.17592C5.89491 8.40092 5.66991 8.84342 5.62491 9.16592L5.30241 11.4234C5.18241 12.2409 5.75991 12.8109 6.57741 12.6984L8.83491 12.3759C9.14991 12.3309 9.59241 12.1059 9.82491 11.8809L15.7349 5.97092C16.7549 4.95092 17.2349 3.76592 15.7349 2.26592C14.2349 0.765922 13.0499 1.24592 12.0299 2.26592Z" stroke="#969696" stroke-width="1.5" stroke-miterlimit="10" stroke-linecap="round" stroke-linejoin="round"/>
<path d="M11.1826 3.11328C11.4313 3.99638 11.9026 4.80083 12.5513 5.44957C13.2001 6.0983 14.0045 6.56959 14.8876 6.81828" stroke="#969696" stroke-width="1.5" stroke-miterlimit="10" stroke-linecap="round" stroke-linejoin="round"/>
</g>
<defs>
<clipPath id="clip0_2476_1310">
<rect width="18" height="18" fill="white"/>
</clipPath>
</defs>
</svg>
