<svg width="84" height="21" viewBox="0 0 84 21" fill="none" xmlns="http://www.w3.org/2000/svg">
<path d="M7.88 15L4.56 9.3H2.36V15H0.54V1.06H5.04C6.09333 1.06 6.98 1.24 7.7 1.6C8.43333 1.96 8.98 2.44667 9.34 3.06C9.7 3.67333 9.88 4.37333 9.88 5.16C9.88 6.12 9.6 6.96667 9.04 7.7C8.49333 8.43333 7.66667 8.92 6.56 9.16L10.06 15H7.88ZM2.36 7.84H5.04C6.02667 7.84 6.76667 7.6 7.26 7.12C7.75333 6.62667 8 5.97333 8 5.16C8 4.33333 7.75333 3.69333 7.26 3.24C6.78 2.78667 6.04 2.56 5.04 2.56H2.36V7.84ZM12.028 9.48C12.028 8.36 12.2546 7.38 12.708 6.54C13.1613 5.68667 13.7813 5.02667 14.568 4.56C15.368 4.09333 16.2546 3.86 17.228 3.86C18.188 3.86 19.0213 4.06667 19.728 4.48C20.4346 4.89333 20.9613 5.41333 21.308 6.04V4.04H23.148V15H21.308V12.96C20.948 13.6 20.408 14.1333 19.688 14.56C18.9813 14.9733 18.1546 15.18 17.208 15.18C16.2346 15.18 15.3546 14.94 14.568 14.46C13.7813 13.98 13.1613 13.3067 12.708 12.44C12.2546 11.5733 12.028 10.5867 12.028 9.48ZM21.308 9.5C21.308 8.67333 21.1413 7.95333 20.808 7.34C20.4746 6.72667 20.0213 6.26 19.448 5.94C18.888 5.60667 18.268 5.44 17.588 5.44C16.908 5.44 16.288 5.6 15.728 5.92C15.168 6.24 14.7213 6.70667 14.388 7.32C14.0546 7.93333 13.888 8.65333 13.888 9.48C13.888 10.32 14.0546 11.0533 14.388 11.68C14.7213 12.2933 15.168 12.7667 15.728 13.1C16.288 13.42 16.908 13.58 17.588 13.58C18.268 13.58 18.888 13.42 19.448 13.1C20.0213 12.7667 20.4746 12.2933 20.808 11.68C21.1413 11.0533 21.308 10.3267 21.308 9.5ZM35.6636 4.04L29.0636 20.16H27.1836L29.3436 14.88L24.9236 4.04H26.9436L30.3836 12.92L33.7836 4.04H35.6636ZM48.7331 15H45.3131L41.1331 6.34L39.5931 15H36.1731L38.6531 0.96H42.0731L46.2531 9.66L47.7931 0.96H51.2131L48.7331 15ZM58.1722 3.68C59.6122 3.68 60.7522 4.07333 61.5922 4.86C62.4455 5.63333 62.8722 6.69333 62.8722 8.04C62.8722 8.48 62.8389 8.87333 62.7722 9.22C62.7189 9.52667 62.6389 9.85333 62.5322 10.2H54.7922C54.7789 10.28 54.7722 10.4067 54.7722 10.58C54.7722 11.1667 54.9322 11.6133 55.2522 11.92C55.5722 12.2267 55.9989 12.38 56.5322 12.38C57.3855 12.38 58.0389 12.02 58.4922 11.3H62.1322C61.6522 12.4333 60.8722 13.36 59.7922 14.08C58.7122 14.8 57.4989 15.16 56.1522 15.16C54.7122 15.16 53.5589 14.76 52.6922 13.96C51.8389 13.16 51.4122 12.0733 51.4122 10.7C51.4122 10.2867 51.4522 9.86 51.5322 9.42C51.7322 8.26 52.1455 7.24667 52.7722 6.38C53.3989 5.51333 54.1789 4.84667 55.1122 4.38C56.0455 3.91333 57.0655 3.68 58.1722 3.68ZM59.4122 8.46C59.4389 8.27333 59.4522 8.14667 59.4522 8.08C59.4522 7.54667 59.2855 7.14 58.9522 6.86C58.6189 6.56667 58.1789 6.42 57.6322 6.42C57.0455 6.42 56.5255 6.6 56.0722 6.96C55.6322 7.30667 55.3122 7.80667 55.1122 8.46H59.4122ZM71.1164 9.48L73.9764 15H70.1364L68.5364 11.92L66.1964 15H62.4964L67.1764 9.3L64.3564 3.84H68.1964L69.7964 6.94L72.1364 3.84H75.8364L71.1164 9.48ZM79.9342 11.16C79.9209 11.2267 79.9142 11.3133 79.9142 11.42C79.9142 11.66 79.9809 11.8333 80.1142 11.94C80.2609 12.0467 80.4942 12.1 80.8142 12.1H82.0342L81.5142 15H79.7742C77.5342 15 76.4142 14.06 76.4142 12.18C76.4142 11.9 76.4476 11.5467 76.5142 11.12L77.3142 6.68H75.9542L76.4542 3.84H77.8142L78.2942 1.12H81.7142L81.2342 3.84H83.4742L82.9742 6.68H80.7342L79.9342 11.16Z" fill="#121212"/>
</svg>
