<svg width="40" height="40" viewBox="0 0 40 40" fill="none" xmlns="http://www.w3.org/2000/svg">
<path d="M3.33398 3.33398H6.23398C8.03398 3.33398 9.45065 4.88398 9.30065 6.66732L7.91732 23.2673C7.86331 23.9104 7.94346 24.5577 8.15271 25.1682C8.36196 25.7787 8.69573 26.3391 9.13288 26.8139C9.57004 27.2886 10.101 27.6674 10.6922 27.9262C11.2834 28.185 11.922 28.3182 12.5673 28.3173H30.3173C32.7173 28.3173 34.8173 26.3507 35.0007 23.9673L35.9007 11.4673C36.1007 8.70065 34.0007 6.45065 31.2173 6.45065H9.70065M15.0007 13.334H35.0007M27.084 36.6673C27.6365 36.6673 28.1664 36.4478 28.5571 36.0571C28.9478 35.6664 29.1673 35.1365 29.1673 34.584C29.1673 34.0314 28.9478 33.5015 28.5571 33.1108C28.1664 32.7201 27.6365 32.5007 27.084 32.5007C26.5315 32.5007 26.0015 32.7201 25.6108 33.1108C25.2201 33.5015 25.0007 34.0314 25.0007 34.584C25.0007 35.1365 25.2201 35.6664 25.6108 36.0571C26.0015 36.4478 26.5315 36.6673 27.084 36.6673ZM13.7507 36.6673C14.3032 36.6673 14.8331 36.4478 15.2238 36.0571C15.6145 35.6664 15.834 35.1365 15.834 34.584C15.834 34.0314 15.6145 33.5015 15.2238 33.1108C14.8331 32.7201 14.3032 32.5007 13.7507 32.5007C13.1981 32.5007 12.6682 32.7201 12.2775 33.1108C11.8868 33.5015 11.6673 34.0314 11.6673 34.584C11.6673 35.1365 11.8868 35.6664 12.2775 36.0571C12.6682 36.4478 13.1981 36.6673 13.7507 36.6673Z" stroke="#121212" stroke-width="3" stroke-miterlimit="10" stroke-linecap="round" stroke-linejoin="round"/>
</svg>
