<svg width="56" height="13" viewBox="0 0 56 13" fill="none" xmlns="http://www.w3.org/2000/svg">
<path d="M55.9242 5.53349C55.9242 2.28474 53.6606 0 50.4873 0C46.4478 0 43.7405 2.93485 43.7405 7.12586C43.7405 10.3963 46.0258 12.6593 49.2528 12.6593C52.1877 12.6593 54.3753 11.2408 55.2741 8.97723H52.0145C51.5811 9.68167 50.6606 10.1253 49.5348 10.1253C47.8017 10.1253 46.7188 8.97723 46.621 7.35283H55.7401C55.859 6.73591 55.9242 6.20532 55.9242 5.53349ZM46.8703 5.1544C47.1624 3.66041 48.6142 2.46885 50.3683 2.46885C51.8847 2.46885 53.0322 3.57349 53.0322 5.15501H46.8703V5.1544ZM34.9794 12.3666L35.5643 9.24826C37.3511 9.60554 37.6221 8.59811 38.0875 6.17273L38.3151 4.97029C38.9646 1.58091 40.2751 -0.108653 44.0224 0.346484L43.4369 3.46544C41.6501 3.1081 41.3363 4.46143 40.9361 6.56207L40.7085 7.7645C40.0584 11.1974 38.7044 12.8217 34.98 12.3672L34.9794 12.3666ZM30.6043 12.378L32.8136 0.292157H35.7267L33.5283 12.378H30.6043ZM13.9158 0.292157H16.7425L17.6631 9.03156L21.3669 0.292157H24.1714L25.1577 9.11842L28.7312 0.292157H31.5472L26.4248 12.378H23.2195L22.1788 4.06062L18.6385 12.3786H15.5413L13.9158 0.292157Z" fill="#2E4369"/>
<path d="M3.35679 3.49825L0 6.70353H5.70673L6.30251 5.30733H3.41112L5.2196 3.49825L4.16927 1.68977H9.07499L4.54775 12.3788H6.24818L11.3705 0.292969H1.47286L3.35679 3.49825Z" fill="#00B9FF"/>
</svg>
