<svg width="24" height="24" viewBox="0 0 24 24" fill="none" xmlns="http://www.w3.org/2000/svg">
<path d="M19.3 7.91953V13.0695C19.3 16.1495 17.54 17.4695 14.9 17.4695H6.11002C5.66002 17.4695 5.23002 17.4295 4.83002 17.3395C4.58002 17.2995 4.34002 17.2295 4.12002 17.1495C2.62002 16.5895 1.71002 15.2895 1.71002 13.0695V7.91953C1.71002 4.83953 3.47002 3.51953 6.11002 3.51953H14.9C17.14 3.51953 18.75 4.46953 19.18 6.63953C19.25 7.03953 19.3 7.44953 19.3 7.91953Z" stroke="#121212" stroke-width="1.5" stroke-miterlimit="10" stroke-linecap="round" stroke-linejoin="round"/>
<path d="M22.301 10.9206V16.0706C22.301 19.1506 20.541 20.4706 17.901 20.4706H9.11099C8.37099 20.4706 7.70099 20.3706 7.12099 20.1506C5.93099 19.7106 5.12099 18.8006 4.83099 17.3406C5.23099 17.4306 5.66099 17.4706 6.11099 17.4706H14.901C17.541 17.4706 19.301 16.1506 19.301 13.0706V7.92063C19.301 7.45063 19.261 7.03062 19.181 6.64062C21.081 7.04063 22.301 8.38063 22.301 10.9206Z" stroke="#121212" stroke-width="1.5" stroke-miterlimit="10" stroke-linecap="round" stroke-linejoin="round"/>
<path d="M4.78003 8.29938V12.6994M16.222 8.29938V12.6994M10.498 13.1394C11.1982 13.1394 11.8697 12.8612 12.3648 12.3661C12.8599 11.871 13.138 11.1995 13.138 10.4994C13.138 9.7992 12.8599 9.12771 12.3648 8.63261C11.8697 8.13752 11.1982 7.85937 10.498 7.85938C9.79786 7.85938 9.12636 8.13752 8.63127 8.63261C8.13617 9.12771 7.85803 9.7992 7.85803 10.4994C7.85803 11.1995 8.13617 11.871 8.63127 12.3661C9.12636 12.8612 9.79786 13.1394 10.498 13.1394Z" stroke="#121212" stroke-width="1.5" stroke-miterlimit="10" stroke-linecap="round" stroke-linejoin="round"/>
</svg>
